<?xml version="1.0" standalone="no"?>
<!DOCTYPE svg PUBLIC "-//W3C//DTD SVG 20010904//EN"
 "http://www.w3.org/TR/2001/REC-SVG-20010904/DTD/svg10.dtd">
<svg version="1.0" xmlns="http://www.w3.org/2000/svg"
 width="350.000000pt" height="350.000000pt" viewBox="0 0 350.000000 350.000000"
 preserveAspectRatio="xMidYMid meet">

<g transform="translate(0.000000,350.000000) scale(0.100000,-0.100000)"
fill="#000000" stroke="none">
<path d="M973 3336 c-173 -7 -286 -15 -293 -22 -13 -13 2 -88 30 -147 11 -22
18 -42 16 -44 -2 -3 -39 0 -81 6 -111 16 -118 15 -113 -11 4 -22 132 -245 200
-351 l31 -48 -22 -27 c-12 -15 -29 -43 -39 -62 l-17 -36 -33 23 c-61 41 -91
-4 -37 -57 l32 -31 -38 -37 c-56 -57 -73 -125 -66 -276 2 -67 8 -128 11 -137
5 -12 -10 -27 -58 -57 -115 -75 -200 -189 -226 -307 -6 -26 -10 -82 -9 -124 1
-52 -3 -87 -14 -107 -8 -16 -26 -66 -40 -111 -21 -67 -32 -87 -67 -119 -103
-93 -140 -185 -140 -350 0 -92 4 -124 22 -171 50 -135 128 -245 279 -394 l117
-116 -55 -54 c-54 -52 -92 -116 -93 -151 0 -15 9 -18 44 -18 45 0 45 0 78 62
34 64 65 93 109 103 22 5 33 0 63 -31 31 -32 36 -43 36 -86 l0 -48 39 0 39 0
4 64 c3 54 8 67 32 90 29 26 51 32 72 18 20 -13 54 -76 54 -102 1 -59 9 -70
56 -70 l44 0 0 39 c0 43 17 100 36 119 20 20 59 14 84 -13 18 -19 25 -40 28
-85 l4 -60 49 0 49 0 0 65 c0 180 92 160 125 -27 7 -35 10 -38 40 -38 31 0 32
1 38 50 12 96 39 130 108 130 40 0 105 -68 122 -127 13 -46 16 -48 54 -51 l40
-3 6 62 c7 78 30 113 80 117 28 2 43 -3 70 -28 38 -33 87 -109 87 -134 0 -9 8
-16 18 -16 15 0 22 13 31 54 15 69 42 103 86 112 55 10 129 -47 167 -130 16
-36 47 -30 72 14 16 27 21 54 22 115 1 45 6 81 12 83 14 4 66 -23 123 -64 66
-48 79 -45 79 14 0 122 76 242 153 242 46 0 67 -28 67 -91 0 -45 -2 -48 -91
-135 -86 -84 -129 -141 -144 -191 -6 -22 -4 -23 49 -23 46 0 56 3 61 20 4 11
11 18 16 15 5 -3 6 0 4 8 -8 20 31 65 64 72 53 11 139 -40 156 -95 6 -18 15
-20 86 -20 49 0 79 4 79 11 0 5 -23 35 -51 65 -49 51 -59 77 -14 34 20 -19 21
-19 21 -1 0 10 -6 17 -12 14 -7 -2 -15 1 -19 7 -4 6 -16 8 -27 4 -14 -4 -18
-2 -14 5 4 6 2 9 -6 6 -7 -2 -28 9 -46 24 -37 32 -35 48 10 86 l23 20 -23 -27
c-17 -19 -20 -28 -11 -33 7 -5 10 -4 6 2 -4 6 2 18 13 28 11 10 17 21 14 26
-8 14 121 143 136 134 10 -6 9 -9 -1 -16 -11 -7 -10 -9 3 -9 9 0 20 5 24 11 4
8 9 7 15 -2 5 -9 8 -6 7 11 -1 14 -5 30 -10 36 -5 7 -3 16 4 22 28 22 132 62
164 62 75 0 156 -122 162 -245 3 -62 -17 -214 -34 -260 -5 -12 4 -15 45 -15
l51 0 0 210 c0 240 -1 244 -78 308 -46 39 -50 46 -68 124 -22 100 -25 265 -5
322 7 22 25 49 39 61 25 21 25 24 26 171 2 264 -14 534 -34 579 -10 22 -30 99
-44 172 -54 271 -121 452 -214 582 -94 132 -273 302 -445 420 -42 30 -77 56
-77 60 0 4 13 38 29 76 16 38 27 73 25 77 -9 15 -54 8 -114 -17 -63 -27 -90
-31 -90 -15 0 5 -16 28 -36 49 -26 30 -52 45 -102 61 -37 12 -84 34 -105 48
-36 24 -46 26 -142 24 -56 -2 -133 2 -171 9 -38 6 -139 13 -224 14 -85 2 -213
6 -285 8 -71 3 -257 0 -412 -7z m1018 -364 c315 -88 565 -293 657 -540 36 -98
42 -255 13 -372 -54 -219 -236 -487 -478 -704 -105 -95 -109 -96 -290 -96
l-105 0 -31 38 c-63 75 -184 188 -215 201 -55 23 -78 9 -101 -62 -37 -111 -30
-107 -197 -107 l-144 0 0 33 c0 65 22 153 53 210 65 124 192 197 356 205 111
5 169 -6 298 -58 60 -24 96 -34 100 -27 12 20 -90 101 -158 125 -75 26 -201
44 -253 35 l-36 -6 40 44 c81 89 137 243 147 404 7 114 -7 167 -56 216 -37 38
-107 65 -142 56 -34 -9 -20 10 51 74 112 100 169 139 201 139 30 0 44 -11 260
-208 64 -59 94 -81 102 -73 7 7 -1 27 -28 68 -117 176 -248 323 -309 343 -46
15 -82 4 -168 -52 -109 -70 -346 -326 -494 -533 -59 -83 -78 -85 -126 -12 -20
28 -72 94 -118 145 -79 88 -82 94 -75 129 10 55 33 82 115 136 171 112 411
211 622 257 129 27 395 23 509 -8z m-457 -500 c27 -25 46 -75 46 -125 0 -65
-47 -264 -76 -324 -32 -66 -98 -134 -159 -162 -99 -47 -229 -36 -284 23 -28
29 -38 95 -21 135 l12 29 42 -44 c39 -40 47 -44 92 -44 112 0 178 99 124 187
-29 48 -73 67 -138 60 l-54 -6 7 27 c11 45 120 182 176 223 65 46 191 58 233
21z m-753 -77 c69 -71 145 -184 159 -235 15 -56 -5 -92 -60 -109 -39 -11 -46
-10 -96 14 -40 19 -65 41 -94 83 -68 95 -82 178 -42 257 32 63 65 61 133 -10z
m9 -437 c49 -24 104 -63 157 -112 88 -80 122 -96 207 -96 l49 0 -46 -49 c-25
-27 -59 -75 -75 -108 -29 -57 -62 -184 -62 -239 l0 -27 -157 7 c-87 3 -189 11
-228 16 -38 5 -109 9 -157 10 l-87 0 -25 53 c-31 65 -49 174 -41 249 14 116
102 247 210 310 71 41 150 37 255 -14z m2209 -32 c110 -58 164 -246 127 -451
-22 -127 -32 -157 -69 -211 -43 -65 -104 -96 -200 -102 -61 -3 -182 10 -194
22 -9 9 -15 141 -8 209 l7 77 77 40 c42 22 95 58 116 80 38 39 38 40 20 60
-10 11 -24 20 -30 20 -7 0 -55 -20 -107 -45 -53 -25 -101 -45 -108 -45 -20 0
-4 114 26 179 38 85 106 148 184 172 42 13 130 10 159 -5z m-2392 -717 c15 -5
49 -27 75 -47 l48 -36 0 -98 c0 -62 -4 -98 -11 -98 -20 0 -134 61 -160 86 -37
36 -73 116 -65 148 6 24 46 55 73 56 6 0 24 -5 40 -11z m916 -98 l30 -30 -26
-39 c-36 -55 -107 -111 -162 -127 l-46 -14 3 106 3 105 45 19 c62 26 115 19
153 -20z m-575 -37 c21 -4 22 -9 22 -94 0 -99 4 -94 -74 -84 l-46 7 0 87 c0
48 3 89 6 93 6 6 33 3 92 -9z m252 -84 l0 -90 -55 0 -55 0 0 84 0 85 38 4 c20
2 45 4 55 5 15 2 17 -8 17 -88z m435 -63 c17 -13 16 -17 -16 -77 -50 -95 -124
-141 -261 -166 l-38 -6 0 65 0 65 33 7 c59 13 145 53 193 89 52 40 62 42 89
23z m-995 -67 c33 -16 66 -30 74 -30 10 0 17 -17 21 -55 10 -75 4 -86 -37 -75
-54 16 -178 82 -194 104 -15 21 -19 68 -7 79 16 17 87 5 143 -23z m291 -70
l39 0 0 -55 0 -55 -39 0 c-65 0 -71 6 -71 67 0 46 3 54 16 49 9 -3 33 -6 55
-6z m269 -55 l0 -55 -55 0 -55 0 0 48 c0 27 3 52 7 55 3 4 28 7 55 7 l48 0 0
-55z m1906 -306 c10 -17 -13 -36 -27 -22 -12 12 -4 33 11 33 5 0 12 -5 16 -11z"/>
<path d="M3290 502 c0 -6 9 -12 20 -15 11 -3 20 -3 20 -1 0 2 -9 8 -20 14 -11
6 -20 7 -20 2z"/>
<path d="M3248 493 c6 -2 18 -2 25 0 6 3 1 5 -13 5 -14 0 -19 -2 -12 -5z"/>
<path d="M3210 481 c13 -9 12 -11 -4 -11 -11 0 -17 -3 -14 -6 3 -3 21 -1 39 5
19 5 26 10 17 10 -9 1 -25 4 -35 7 -15 5 -15 4 -3 -5z"/>
<path d="M3006 341 c-21 -23 -14 -40 14 -38 10 1 17 5 14 9 -3 4 -12 4 -21 1
-11 -4 -14 -2 -11 8 3 8 12 13 21 13 9 -1 13 4 10 12 -7 18 -7 18 -27 -5z"/>
<path d="M3380 344 c0 -10 5 -26 10 -34 8 -11 9 -7 4 15 -8 37 -14 45 -14 19z"/>
<path d="M3400 341 c0 -5 5 -13 10 -16 6 -3 10 -2 10 4 0 5 -4 13 -10 16 -5 3
-10 2 -10 -4z"/>
<path d="M3361 314 c0 -11 3 -14 6 -6 3 7 2 16 -1 19 -3 4 -6 -2 -5 -13z"/>
<path d="M2946 243 c-6 -14 -5 -15 5 -6 7 7 10 15 7 18 -3 3 -9 -2 -12 -12z"/>
<path d="M3372 160 c0 -14 2 -19 5 -12 2 6 2 18 0 25 -3 6 -5 1 -5 -13z"/>
<path d="M3401 168 c0 -9 -4 -25 -7 -35 -5 -17 -5 -17 6 0 6 10 9 25 7 35 -4
15 -5 15 -6 0z"/>
<path d="M744 148 c9 -5 23 -5 32 0 12 6 7 9 -16 9 -23 0 -28 -3 -16 -9z"/>
<path d="M997 153 c-3 -5 9 -9 26 -10 26 -1 28 0 12 7 -26 11 -33 12 -38 3z"/>
<path d="M435 110 c-6 -10 11 -50 21 -50 2 0 0 9 -6 19 -14 26 -13 31 5 25 8
-4 15 -4 15 -1 0 10 -30 16 -35 7z"/>
<path d="M3371 104 c0 -11 3 -14 6 -6 3 7 2 16 -1 19 -3 4 -6 -2 -5 -13z"/>
<path d="M805 80 c-4 -17 -5 -34 -2 -36 2 -3 7 10 11 27 8 42 0 50 -9 9z"/>
<path d="M3401 94 c0 -11 3 -14 6 -6 3 7 2 16 -1 19 -3 4 -6 -2 -5 -13z"/>
<path d="M701 84 c0 -11 3 -14 6 -6 3 7 2 16 -1 19 -3 4 -6 -2 -5 -13z"/>
<path d="M1061 84 c0 -11 3 -14 6 -6 3 7 2 16 -1 19 -3 4 -6 -2 -5 -13z"/>
<path d="M407 76 c-3 -8 -2 -18 3 -21 13 -8 20 9 11 24 -6 10 -10 9 -14 -3z"/>
<path d="M2715 80 c-3 -6 1 -7 9 -4 18 7 21 14 7 14 -6 0 -13 -4 -16 -10z"/>
<path d="M2780 85 c0 -8 29 -12 39 -5 9 5 4 8 -13 8 -14 0 -26 -2 -26 -3z"/>
<path d="M3090 40 c17 -34 17 -34 23 -9 3 11 3 18 0 15 -4 -3 -13 0 -21 7 -13
11 -14 9 -2 -13z"/>
<path d="M2700 41 c0 -6 4 -13 10 -16 6 -3 7 1 4 9 -7 18 -14 21 -14 7z"/>
</g>
</svg>
